<svg width="988" height="1024" viewBox="0 0 988 1024" fill="none" xmlns="http://www.w3.org/2000/svg">
<g opacity="0.4999">
<path d="M1.5 1032.5L1600.43 -535.719" stroke="#F5A623" stroke-linecap="square"/>
<path d="M10.5 1039.5L1609.43 -528.719" stroke="#F5A623" stroke-linecap="square"/>
<path d="M19.5 1046.5L1618.43 -521.719" stroke="#F5A623" stroke-linecap="square"/>
<path d="M28.5 1053.5L1627.43 -514.719" stroke="#F5A623" stroke-linecap="square"/>
<path d="M37.5 1060.5L1636.43 -507.719" stroke="#F5A623" stroke-linecap="square"/>
<path d="M46.5 1067.5L1645.43 -500.719" stroke="#F5A623" stroke-linecap="square"/>
<path d="M55.5 1074.5L1654.43 -493.719" stroke="#F5A623" stroke-linecap="square"/>
<path d="M64.5 1081.5L1663.43 -486.719" stroke="#F5A623" stroke-linecap="square"/>
<path d="M73.5 1088.5L1672.43 -479.719" stroke="#F5A623" stroke-linecap="square"/>
<path d="M82.5 1095.5L1681.43 -472.719" stroke="#F5A623" stroke-linecap="square"/>
<path d="M91.5 1102.5L1690.43 -465.719" stroke="#F5A623" stroke-linecap="square"/>
<path d="M100.5 1109.5L1699.43 -458.719" stroke="#F5A623" stroke-linecap="square"/>
<path d="M109.5 1116.5L1708.43 -451.719" stroke="#F5A623" stroke-linecap="square"/>
<path d="M118.5 1123.5L1717.43 -444.719" stroke="#F5A623" stroke-linecap="square"/>
<path d="M127.5 1130.5L1726.43 -437.719" stroke="#F5A623" stroke-linecap="square"/>
<path d="M136.5 1137.5L1735.43 -430.719" stroke="#F5A623" stroke-linecap="square"/>
<path d="M145.5 1144.5L1744.43 -423.719" stroke="#F5A623" stroke-linecap="square"/>
<path d="M154.5 1151.5L1753.43 -416.719" stroke="#F5A623" stroke-linecap="square"/>
<path d="M163.5 1158.5L1762.43 -409.719" stroke="#F5A623" stroke-linecap="square"/>
<path d="M172.5 1165.5L1771.43 -402.719" stroke="#F5A623" stroke-linecap="square"/>
<path d="M181.5 1172.5L1780.43 -395.719" stroke="#F5A623" stroke-linecap="square"/>
<path d="M190.5 1179.5L1789.43 -388.719" stroke="#F5A623" stroke-linecap="square"/>
<path d="M199.5 1186.5L1798.43 -381.719" stroke="#F5A623" stroke-linecap="square"/>
<path d="M208.5 1193.5L1807.43 -374.719" stroke="#F5A623" stroke-linecap="square"/>
<path d="M217.5 1200.5L1816.43 -367.719" stroke="#F5A623" stroke-linecap="square"/>
<path d="M226.5 1207.5L1825.43 -360.719" stroke="#F5A623" stroke-linecap="square"/>
<path d="M235.5 1214.5L1834.43 -353.719" stroke="#F5A623" stroke-linecap="square"/>
<path d="M244.5 1221.5L1843.43 -346.719" stroke="#F5A623" stroke-linecap="square"/>
<path d="M253.5 1228.5L1852.43 -339.719" stroke="#F5A623" stroke-linecap="square"/>
<path d="M262.5 1235.5L1861.43 -332.719" stroke="#F5A623" stroke-linecap="square"/>
<path d="M271.5 1242.5L1870.43 -325.719" stroke="#F5A623" stroke-linecap="square"/>
<path d="M280.5 1249.5L1879.43 -318.719" stroke="#F5A623" stroke-linecap="square"/>
<path d="M289.5 1256.5L1888.43 -311.719" stroke="#F5A623" stroke-linecap="square"/>
<path d="M298.5 1263.5L1897.43 -304.719" stroke="#F5A623" stroke-linecap="square"/>
<path d="M307.5 1270.5L1906.43 -297.719" stroke="#F5A623" stroke-linecap="square"/>
<path d="M316.5 1277.5L1915.43 -290.719" stroke="#F5A623" stroke-linecap="square"/>
<path d="M325.5 1284.5L1924.43 -283.719" stroke="#F5A623" stroke-linecap="square"/>
<path d="M334.5 1291.5L1933.43 -276.719" stroke="#F5A623" stroke-linecap="square"/>
</g>
</svg>
