<svg width="40" height="40" viewBox="0 0 40 40" fill="none" xmlns="http://www.w3.org/2000/svg">
<rect width="40" height="40" rx="20" fill="white"/>
<path fill-rule="evenodd" clip-rule="evenodd" d="M21.409 20.5L27.2046 14.7044C27.7324 14.1766 27.7324 13.3234 27.2046 12.7955C26.6767 12.2677 25.8235 12.2677 25.2957 12.7955L19.5001 18.5911L13.7046 12.7955C13.1767 12.2677 12.3235 12.2677 11.7957 12.7955C11.2678 13.3234 11.2678 14.1766 11.7957 14.7044L17.5912 20.5L11.7957 26.2955C11.2678 26.8234 11.2678 27.6766 11.7957 28.2044C12.0589 28.4677 12.4045 28.6 12.7501 28.6C13.0957 28.6 13.4413 28.4677 13.7046 28.2044L19.5001 22.4089L25.2957 28.2044C25.5589 28.4677 25.9045 28.6 26.2501 28.6C26.5957 28.6 26.9413 28.4677 27.2046 28.2044C27.7324 27.6766 27.7324 26.8234 27.2046 26.2955L21.409 20.5Z" fill="#F5A623"/>
</svg>
