<svg width="173" height="34" viewBox="0 0 173 34" fill="none" xmlns="http://www.w3.org/2000/svg">
<path fill-rule="evenodd" clip-rule="evenodd" d="M56.9514 5.93262H57.0185C57.3542 5.93262 57.5556 6.19928 57.5556 6.53262V21.9993C57.5556 22.266 57.3542 22.5326 57.0185 22.5326C56.75 22.5326 56.4814 22.3326 56.4814 21.9993V6.46595C56.4814 6.19928 56.6828 5.93262 56.9514 5.93262ZM42.2485 6.73262H52.3861C52.7218 6.73262 52.9232 7.06595 52.9232 7.33262C52.9232 7.59928 52.7218 7.86595 52.3861 7.86595H42.7856V14.3326H51.4462C51.7148 14.3326 51.9833 14.5326 51.9833 14.866C51.9833 15.1326 51.7819 15.3993 51.4462 15.3993H42.8527V22.066C42.7856 22.3993 42.5171 22.666 42.1814 22.666C41.8457 22.666 41.5771 22.3993 41.5771 22.066V7.33262H41.6443C41.6443 6.99928 41.9128 6.73262 42.2485 6.73262ZM71.6543 11.5326C71.6543 11.1993 71.3857 10.9993 71.1172 10.9993C70.7815 10.9993 70.5801 11.266 70.5801 11.5326V17.9993C70.5801 20.1993 68.7674 21.9326 66.5519 21.866C64.2021 21.866 62.8594 20.3326 62.8594 17.9326V11.5326C62.8594 11.1993 62.5909 10.9993 62.3223 10.9993C62.0538 10.9993 61.7852 11.266 61.7852 11.5326V18.1326C61.7852 20.866 63.5308 22.866 66.4176 22.866C68.1632 22.9326 69.8416 21.9993 70.6472 20.466V22.1326C70.6472 22.466 70.9158 22.666 71.1843 22.666C71.52 22.666 71.7214 22.3993 71.7214 22.1326H71.6543V11.5326ZM81.859 11.5993C81.859 11.866 81.5905 12.066 81.3219 12.066H77.6294V19.466C77.6294 21.1326 78.5693 21.7326 79.9792 21.7326C80.4491 21.7326 80.9191 21.666 81.3219 21.5326C81.5905 21.5326 81.7919 21.7326 81.7919 21.9993C81.7919 22.1993 81.6576 22.3993 81.4562 22.466C80.9191 22.666 80.3149 22.7326 79.7778 22.7326C78.0322 22.7326 76.5552 21.7326 76.5552 19.5993V12.066H75.2796C75.0111 12.066 74.7425 11.7993 74.7425 11.5326C74.7425 11.266 75.0111 11.066 75.2796 11.066H76.5552V7.86595C76.5552 7.59928 76.7566 7.33262 77.0252 7.33262H77.0923C77.3609 7.33262 77.6294 7.59928 77.6294 7.86595V11.066H81.3219C81.5905 11.066 81.859 11.3326 81.859 11.5993ZM90.4525 12.066C90.721 12.066 90.9896 11.866 90.9896 11.5993C90.9896 11.3326 90.721 11.066 90.4525 11.066H86.76V7.86595C86.76 7.59928 86.4914 7.33262 86.2229 7.33262H86.1557C85.8872 7.33262 85.6858 7.59928 85.6858 7.86595V11.066H84.4102C84.1417 11.066 83.8731 11.266 83.8731 11.5326C83.8731 11.7993 84.1417 12.066 84.4102 12.066H85.6858V19.5993C85.6858 21.7326 87.1628 22.7326 88.9083 22.7326C89.4454 22.7326 90.0497 22.666 90.5867 22.466C90.7882 22.3993 90.9224 22.1993 90.9224 21.9993C90.9224 21.7326 90.721 21.5326 90.4525 21.5326C90.0497 21.666 89.5797 21.7326 89.1097 21.7326C87.6999 21.7326 86.76 21.1326 86.76 19.466V12.066H90.4525ZM93.0037 16.7993C93.0037 13.3993 95.3534 10.7326 98.5088 10.7326C101.799 10.7326 103.88 13.3993 103.88 16.7993C103.88 17.066 103.611 17.3326 103.343 17.3326H94.2121C94.4135 20.1993 96.4948 21.866 98.7774 21.866C100.187 21.866 101.597 21.266 102.537 20.266C102.604 20.1993 102.738 20.1326 102.873 20.1326C103.141 20.1326 103.41 20.3993 103.41 20.666C103.41 20.7993 103.343 20.9326 103.208 21.066C102.067 22.3326 100.389 22.9993 98.7103 22.9326C95.622 22.9326 93.0037 20.5326 93.0037 16.866V16.7993ZM94.145 16.266C94.3464 13.7326 96.1591 11.7993 98.4417 11.7993C101.06 11.7993 102.47 13.9326 102.604 16.266H94.145ZM108.244 14.3993C108.982 12.466 110.795 11.066 112.876 10.9326C113.212 10.9326 113.48 11.1993 113.48 11.5993C113.48 11.866 113.279 12.1993 112.943 12.1993H112.876C110.392 12.466 108.244 14.266 108.244 17.9993V22.2659C108.176 22.5993 107.975 22.7993 107.639 22.7993C107.371 22.7993 107.102 22.5326 107.102 22.2659V11.5993C107.169 11.266 107.371 11.066 107.707 11.066C107.975 11.066 108.244 11.3326 108.244 11.5993V14.3993ZM131.204 10.3326C130.399 10.3326 129.727 10.866 129.526 11.666L127.579 17.866L125.632 11.666C125.431 10.866 124.692 10.266 123.819 10.266H123.618C122.745 10.266 122.007 10.7993 121.805 11.666L119.858 17.7993L117.978 11.5993C117.777 10.866 117.106 10.266 116.3 10.266H116.233C115.36 10.266 114.689 10.9993 114.689 11.866C114.689 12.1326 114.756 12.3992 114.823 12.6659L114.823 12.666L117.844 21.266C118.046 22.1326 118.784 22.7326 119.724 22.7993H119.858C120.731 22.7993 121.47 22.1993 121.738 21.3326L123.685 15.1993L125.632 21.3326C125.833 22.1993 126.639 22.7993 127.512 22.7993H127.646C128.586 22.7993 129.392 22.1993 129.593 21.266L132.614 12.5993C132.681 12.3993 132.748 12.1326 132.748 11.9326V11.866C132.748 10.9993 132.077 10.3326 131.204 10.3326ZM135.904 10.9326C137.179 10.5326 138.455 10.266 139.798 10.3326C141.678 10.3326 143.02 10.866 144.027 11.7326C144.967 12.7993 145.437 14.1993 145.37 15.5993V21.066C145.37 21.9993 144.632 22.7326 143.692 22.7326C142.819 22.7326 142.08 22.1326 142.013 21.266C141.073 22.2659 139.731 22.866 138.321 22.7993C136.105 22.7993 134.158 21.466 134.158 19.066C134.158 16.3993 136.172 15.1326 139.059 15.1326C140.066 15.1326 141.073 15.266 142.013 15.5993V15.3993C142.013 13.9326 141.14 13.1993 139.395 13.1993C138.589 13.1993 137.784 13.266 136.978 13.5326C136.844 13.5993 136.642 13.5993 136.508 13.5993C135.702 13.666 135.031 13.066 135.031 12.266C135.031 11.666 135.367 11.1326 135.904 10.9326ZM142.08 18.266C142.08 19.5993 140.939 20.3993 139.328 20.3326C138.254 20.3326 137.448 19.7993 137.448 18.866V18.7993C137.448 17.7993 138.388 17.1326 139.865 17.1326C140.603 17.1326 141.409 17.3326 142.08 17.5993V18.266ZM155.709 11.466C155.91 10.7326 156.582 10.266 157.32 10.266C158.26 10.266 158.999 10.9993 158.999 11.866V11.9326C158.999 12.1993 158.932 12.466 158.797 12.7326L155.172 21.3326C154.836 22.1993 154.031 22.7326 153.158 22.7993H152.956C152.017 22.7326 151.278 22.1326 151.01 21.266L147.25 12.666C147.116 12.3993 147.048 12.1326 147.048 11.866C147.116 10.9326 147.854 10.266 148.727 10.266C149.533 10.266 150.204 10.7993 150.405 11.5326L153.024 18.5326L155.709 11.466ZM160.342 17.066C160.476 20.3993 163.363 22.9993 166.719 22.7993C168.264 22.7993 169.741 22.3326 170.949 21.3326C171.285 21.066 171.419 20.7326 171.419 20.3326V20.266C171.419 19.5326 170.815 18.9326 170.076 18.9326C169.808 18.9326 169.472 18.9993 169.271 19.1993C168.532 19.7326 167.659 20.066 166.787 19.9993C165.31 20.066 164.034 19.066 163.833 17.5993H170.748C171.62 17.5326 172.292 16.7993 172.225 15.9326V15.666C172.225 12.666 169.606 10.1326 166.384 10.1993C162.826 10.1993 160.342 13.066 160.342 16.5326V17.066ZM166.384 12.9993C164.974 12.9993 164.034 13.9993 163.765 15.5993H168.935C168.734 14.066 167.794 12.9993 166.384 12.9993Z" fill="#12122C"/>
<path fill-rule="evenodd" clip-rule="evenodd" d="M24.2561 0.265933C39.3618 -2.00073 29.6941 10.8659 24.9946 14.4659C28.2171 16.9326 31.5068 20.3993 32.9167 24.3326C35.535 31.5326 29.0899 32.5993 24.2561 30.7993C18.9523 28.9326 14.2527 24.9326 11.1645 20.2659C10.2917 20.2659 9.35178 20.1326 8.479 19.8659C10.2246 24.7993 10.9631 29.8659 10.4931 33.9993C10.4931 25.6659 6.53205 17.3993 0.82545 10.5326C-1.18864 8.1326 0.892587 6.3326 2.70527 8.66593C3.92552 10.3558 5.04633 12.1143 6.06209 13.9326C8.00905 7.1326 17.6767 1.19927 24.2561 0.265933ZM22.1077 12.5326C25.0617 10.7326 34.058 1.06593 25.6659 1.9326C20.8321 2.46593 14.9912 6.9326 12.5743 9.79927C15.9311 9.39927 19.3551 10.8659 22.1077 12.5326ZM12.5072 11.9326C14.7898 11.7326 17.2739 12.9326 19.1537 14.1326C17.341 14.9993 15.3269 15.5326 13.2457 15.6659C10.1574 15.6659 9.55319 12.1993 12.5072 11.9326ZM13.7828 19.9993C16.4682 22.9993 20.1607 25.9326 24.1218 26.9993C26.4044 27.5993 28.9556 27.3326 28.0157 24.0659C27.0758 21.0659 24.6589 18.3993 22.3091 16.3993C21.6377 16.8659 20.8992 17.3326 20.1607 17.6659C18.1467 18.7993 15.9983 19.5993 13.7828 19.9993Z" fill="#F5A623"/>
</svg>
